<svg id="Layer_1" data-name="Layer 1" xmlns="http://www.w3.org/2000/svg" viewBox="0 0 294 294"><defs><style>.cls-1{fill:#6b2234;}.cls-2{fill:none;stroke:#f9f4e2;stroke-miterlimit:10;stroke-width:2.38px;}.cls-3{fill:#f9f4e2;}</style></defs><circle class="cls-1" cx="147" cy="147" r="141.81"/><circle class="cls-1" cx="147" cy="147" r="141.81"/><circle class="cls-1" cx="147" cy="147" r="147"/><circle class="cls-2" cx="147" cy="147" r="141.81"/><path class="cls-3" d="M72.08,193.65c.8,3.54,1.58,7.1,2.37,10.65a346,346,0,0,1,151.09,0c.78-3.55,1.58-7.11,2.38-10.65A357.19,357.19,0,0,0,72.08,193.65Z" transform="translate(-3 -3)"/><path class="cls-3" d="M142.26,158.75q-17.43.36-34.8,2.38a14,14,0,0,1,9.11,11.57,14.75,14.75,0,0,1-3.5,10.88c8.87-1,17.79-1.56,26.7-1.83a14.78,14.78,0,0,1-5-10.3A14,14,0,0,1,142.26,158.75Z" transform="translate(-3 -3)"/><path class="cls-3" d="M192.56,161.13c-11.56-1.35-23.19-2.14-34.82-2.38a13.93,13.93,0,0,1,7.44,12.7,14.77,14.77,0,0,1-4.94,10.3c8.9.28,17.82.9,26.69,1.83a14.82,14.82,0,0,1-3.49-10.87A14,14,0,0,1,192.56,161.13Z" transform="translate(-3 -3)"/><path class="cls-3" d="M213.59,176.86a14.69,14.69,0,0,1-6.32,9.52q9.18,1.55,18.28,3.57,2.49-11.17,5-22.4-11.25-2.49-22.63-4.31A13.94,13.94,0,0,1,213.59,176.86Z" transform="translate(-3 -3)"/><path class="cls-3" d="M92.09,163.24c-7.58,1.19-15.11,2.65-22.63,4.31q2.51,11.2,5,22.38,9.11-2,18.28-3.55a14.84,14.84,0,0,1-6.32-9.54C85.44,171.55,87.84,166.48,92.09,163.24Z" transform="translate(-3 -3)"/><path class="cls-3" d="M216.27,144.11l3.55,3.67c2.67-2.57,5.1-5.13,7.23-7.61l-3.89-3.33C221.15,139.19,218.83,141.63,216.27,144.11Z" transform="translate(-3 -3)"/><path class="cls-3" d="M234.4,110.77v.08l5.12-.08A33.64,33.64,0,0,0,237.75,100l-4.85,1.64A28.61,28.61,0,0,1,234.4,110.77Z" transform="translate(-3 -3)"/><path class="cls-3" d="M232.55,120.83a29.73,29.73,0,0,1-3.57,8.1l4.39,2.66a34,34,0,0,0,4.06-9.21l.24-.65-4.85-1.66Z" transform="translate(-3 -3)"/><path class="cls-3" d="M76.84,136.84,73,140.19c2.13,2.48,4.56,5,7.23,7.6l3.55-3.68C81.18,141.63,78.85,139.19,76.84,136.84Z" transform="translate(-3 -3)"/><path class="cls-3" d="M67.11,101.6,62.26,100a33.92,33.92,0,0,0-1.77,10.81v.08l5.12-.08A28.89,28.89,0,0,1,67.11,101.6Z" transform="translate(-3 -3)"/><path class="cls-3" d="M67.18,120l-4.7,2a35,35,0,0,0,4.14,9.51l4.4-2.66a29.34,29.34,0,0,1-3.57-8.1Z" transform="translate(-3 -3)"/><path class="cls-3" d="M103.13,137.14q2.87,3.95,6.14,7.87l3.94-3.29c-2.1-2.51-4.09-5.05-5.94-7.59Z" transform="translate(-3 -3)"/><path class="cls-3" d="M125.21,65.14l1.31-4.94a24.81,24.81,0,0,0-10.79-.53l.85,5A21,21,0,0,1,125.21,65.14Z" transform="translate(-3 -3)"/><path class="cls-3" d="M97.58,128.78l4.39-2.62a63.52,63.52,0,0,1-4.28-8.39l-4.74,2A69.87,69.87,0,0,0,97.58,128.78Z" transform="translate(-3 -3)"/><path class="cls-3" d="M95,108.78a44,44,0,0,1-1.31-9.17l-5.12.17A48.41,48.41,0,0,0,90,110Z" transform="translate(-3 -3)"/><path class="cls-3" d="M139.31,75.52l4.16-3A34.42,34.42,0,0,0,136.14,65l-3.08,4.1A30.06,30.06,0,0,1,139.31,75.52Z" transform="translate(-3 -3)"/><path class="cls-3" d="M108.54,67.83l-3.24-4a33.36,33.36,0,0,0-7.44,6.79l4,3.23A29.14,29.14,0,0,1,108.54,67.83Z" transform="translate(-3 -3)"/><path class="cls-3" d="M97.09,81.64l-4.68-2.07a44.2,44.2,0,0,0-3.06,9.91l5,.94A40.5,40.5,0,0,1,97.09,81.64Z" transform="translate(-3 -3)"/><path class="cls-3" d="M166.85,69.14l-3.1-4.06a33.72,33.72,0,0,0-7.27,7.63l4.2,2.94A29.29,29.29,0,0,1,166.85,69.14Z" transform="translate(-3 -3)"/><path class="cls-3" d="M205.07,108.54l5,1.26a46,46,0,0,0,1.42-10.24l-5.13-.15A40.75,40.75,0,0,1,205.07,108.54Z" transform="translate(-3 -3)"/><path class="cls-3" d="M202.43,128.55a73.2,73.2,0,0,0,4.62-9.05l-4.73-2a68.18,68.18,0,0,1-4.29,8.39Z" transform="translate(-3 -3)"/><path class="cls-3" d="M210.62,89.27a45.63,45.63,0,0,0-3.1-9.9l-4.69,2.11a39.67,39.67,0,0,1,2.76,8.75Z" transform="translate(-3 -3)"/><path class="cls-3" d="M198.1,73.74,202,70.47a33.64,33.64,0,0,0-7.32-6.62l-.56-.37-2.78,4.31.53.34A29.14,29.14,0,0,1,198.1,73.74Z" transform="translate(-3 -3)"/><path class="cls-3" d="M183.29,64.69l.81-5a25.71,25.71,0,0,0-10.79.6l1.36,4.95A21,21,0,0,1,183.29,64.69Z" transform="translate(-3 -3)"/><path class="cls-3" d="M196.93,136.92l-4.16-3c-1.83,2.56-3.82,5.11-5.89,7.64l4,3.26C193,142.18,195,139.54,196.93,136.92Z" transform="translate(-3 -3)"/><path class="cls-3" d="M256.26,108.21c0-18.85-10.66-36.23-27.83-45.37a55.53,55.53,0,0,0-22.06-6.15,47.74,47.74,0,0,0-4.6-3.55c-14.51-9.53-33.13-8.14-46.64,2.5V42.76h13.13V32.52H155.13V21.62H144.89v10.9H131.76V42.76h13.13V55.61c-13.52-10.62-32.1-12-46.64-2.47a40.8,40.8,0,0,0-4.4,3.38,50.79,50.79,0,0,0-23.67,6.37A52,52,0,0,0,43.74,108.2a50.46,50.46,0,0,0,2.39,15.49c2.17,9.88,8.77,20.22,17.15,30.2h-.07c.78,3.54,1.58,7.07,2.37,10.62a387,387,0,0,1,168.87,0q1.17-5.31,2.37-10.62l-.83-.16c8.63-9.79,15.39-19.89,17.62-29.51A49.74,49.74,0,0,0,256.26,108.21ZM155.13,70.39c10.28-13.7,27.6-17.49,41-8.68C207.18,69,214,83,214,98.28a50.7,50.7,0,0,1-1.85,13.44c-2.09,11.15-9.91,23.46-19.45,34.93-10.15-1.1-20.33-1.68-30.51-2a15,15,0,0,0,3.15-9.06,15.33,15.33,0,0,0-10.24-14.43V70.39ZM150,130.49a5.13,5.13,0,1,1-5.12,5.12A5.13,5.13,0,0,1,150,130.49ZM103.87,61.72a28.91,28.91,0,0,1,16.06-5c9.51,0,18.49,5,25,13.59v50.83a15.34,15.34,0,0,0-10.25,14.43,15.1,15.1,0,0,0,3.13,9c-10.14.29-20.3.88-30.39,2-9.62-11.59-17.52-24-19.64-35.33a49.29,49.29,0,0,1-1.75-13C86,83,92.83,69,103.87,61.72ZM56,121A41.72,41.72,0,0,1,75.18,71.85,40.67,40.67,0,0,1,84,68.26a56.39,56.39,0,0,0-6.85,17L75,82.43a39.81,39.81,0,0,0-7.66,7.8l4.12,3a34.3,34.3,0,0,1,5.3-5.56,59.66,59.66,0,0,0-1,10.58,58.64,58.64,0,0,0,2,15.33c2.13,11.32,9,23.31,17.75,34.62q-10.39,1.44-20.74,3.42C65.49,141.45,58.17,130.82,56,121Zm187.75.4c-2.22,9.56-9.78,20-19.41,30q-9.85-1.87-19.76-3.24c8.65-11.2,15.49-23.06,17.56-34.22a58.82,58.82,0,0,0,2.12-15.74,60.38,60.38,0,0,0-1-10.56,34.2,34.2,0,0,1,5.29,5.55l4.13-3a39.81,39.81,0,0,0-7.66-7.8l-2.18,2.84a56.18,56.18,0,0,0-6.46-16.34,44.28,44.28,0,0,1,7.26,3c13.81,7.36,22.4,21.25,22.4,36.31A41.1,41.1,0,0,1,243.76,121.43Z" transform="translate(-3 -3)"/><path class="cls-3" d="M217.3,265.16c-.94.66-1.86,1.35-2.83,2a28.85,28.85,0,0,1-22.79,4.09c-10.59-2.3-20.84-5.73-31.08-9.19a2.44,2.44,0,1,1,1.53-4.61c1.56.49,3.1,1,4.66,1.55,8.8,2.87,17.58,5.83,26.69,7.59,9.78,1.9,17.76-1.29,24.05-8.88a44.37,44.37,0,0,0,2.8-4.28,45.29,45.29,0,0,1-20.75,4.83,99.61,99.61,0,0,1-14.43-1.1c-19-3-37.9-6.15-56.85-9.26l-1.66-.28c.06.64.13,1.12.14,1.6,0,3.16-.59,3.78-3.75,3.8q-22.29.12-44.57.24c-.87,0-1.74-.1-2.61-.15l-1-1c-.08-.75-.23-1.5-.24-2.24,0-4.28-.06-8.55-.09-12.82,0-2.7.7-3.42,3.38-3.44l45.17-.26c2.76,0,3.24.36,3.82,3.09.49-.19,1-.38,1.43-.55,13.47-5,26.9-10,40.41-14.89a174.9,174.9,0,0,1,23.66-6.86,28.17,28.17,0,0,1,24.19,5.75A29.21,29.21,0,0,1,224,256.68c-.94,1.7-2.1,3.27-3.16,4.9Zm3-20.12-60.52.35a8.07,8.07,0,0,1-1.55-.09,2.41,2.41,0,0,1,0-4.71,8,8,0,0,1,1.55-.09l60.51-.35c.44,0,.87,0,1.51.1a8.18,8.18,0,0,0-3.43-3.44c-4.9-3.09-10.39-4.18-16-4.66a66.77,66.77,0,0,0-17.05,1.16c-18.14,3.09-36.25,6.33-54.38,9.52-.22,0-.44.12-1,.26a9.36,9.36,0,0,0,1,.3c19.38,3.47,38.74,7,58.29,9.4,6.9.85,13.78,1,20.58-.76a25.11,25.11,0,0,0,9.92-4.56,33.56,33.56,0,0,0,2.38-2.39C221.28,245.06,220.81,245,220.35,245Zm-98.67,2.9-.2-9.5-41.82.25,0,9.49Zm95.95-20.07c-6-7.34-13.68-10.75-23.17-9.15-8.2,1.39-16.08,4.08-23.93,6.79-8.7,3-17.35,6.21-26,9.33a2.75,2.75,0,0,0-1,.6c3.88-.71,7.74-1.5,11.63-2.11,12.94-2,25.86-4.22,38.84-5.91A44,44,0,0,1,218,231c.69.31,1.35.67,2,1l.21-.15A40.77,40.77,0,0,0,217.63,227.87Z" transform="translate(-3 -3)"/><path class="cls-3" d="M154.84,254.82c-1.81-.52-3.6-1.19-5.44-1.53-1-.18-1.93.87-2.1,1.93a2.25,2.25,0,0,0,1.3,2.58,27.08,27.08,0,0,0,3.94,1.39,2.23,2.23,0,0,0,2.62-1.19,2.34,2.34,0,0,0-.42-2.86Z" transform="translate(-3 -3)"/></svg>